<svg xmlns="http://www.w3.org/2000/svg" width="1280" height="720" viewBox="0 0 1280 720" role="img" aria-label="Streamlit demo screens overview">
  <defs>
    <linearGradient id="bg2" x1="0" y1="0" x2="1" y2="1"><stop offset="0" stop-color="#fbfcff"/><stop offset="1" stop-color="#f1f7f6"/></linearGradient>
    <filter id="shadow2" x="-20%" y="-20%" width="140%" height="140%"><feDropShadow dx="0" dy="9" stdDeviation="10" flood-color="#1f2937" flood-opacity="0.15"/></filter>
    <style>.title{font:700 34px Arial,sans-serif;fill:#172033}.sub{font:400 18px Arial,sans-serif;fill:#526071}.panel{fill:#fff;stroke:#d9e2ec;stroke-width:1.3;filter:url(#shadow2)}.bar{fill:#2f3e46}.txt{font:700 18px Arial,sans-serif;fill:#172033}.sm{font:400 14px Arial,sans-serif;fill:#5c6b7a}.axis{stroke:#ccd7e2;stroke-width:1}.blue{stroke:#2f80ed;stroke-width:3;fill:none}.red{stroke:#d64545;stroke-width:3;fill:none}.green{stroke:#28a745;stroke-width:3;fill:none}.fillblue{fill:#e9f4ff}.fillred{fill:#fff0ee}.fillgreen{fill:#edf8ef}.fillgold{fill:#fff6df}</style>
  </defs>
  <rect width="1280" height="720" fill="url(#bg2)"/>
  <text x="62" y="78" class="title">Демонстрационный интерфейс</text>
  <text x="62" y="110" class="sub">Три страницы Streamlit: классификация, прогноз RUL и дашборд состояния</text>

  <rect x="62" y="160" rx="20" width="354" height="450" class="panel"/>
  <rect x="62" y="160" rx="20" width="354" height="58" class="bar"/>
  <text x="88" y="197" font-family="Arial" font-size="18" font-weight="700" fill="#fff">Классификация CWRU</text>
  <rect x="88" y="248" rx="8" width="290" height="42" class="fillblue"/>
  <text x="108" y="275" class="sm">checkpoint: cwru_classifier.pth</text>
  <polyline points="90,405 120,392 150,420 180,362 210,377 240,306 270,354 300,328 330,376 376,350" class="blue"/>
  <rect x="88" y="462" width="290" height="88" fill="#f7fafc" stroke="#dae3ed"/>
  <rect x="110" y="482" width="38" height="38" fill="#73b7ff"/><rect x="154" y="482" width="38" height="38" fill="#ffcf70"/><rect x="198" y="482" width="38" height="38" fill="#ff8177"/><rect x="242" y="482" width="38" height="38" fill="#8bd39a"/><rect x="286" y="482" width="38" height="38" fill="#9b8cf2"/>
  <text x="88" y="580" class="sm">сигнал + карта важности + класс</text>

  <rect x="464" y="160" rx="20" width="354" height="450" class="panel"/>
  <rect x="464" y="160" rx="20" width="354" height="58" class="bar"/>
  <text x="490" y="197" font-family="Arial" font-size="18" font-weight="700" fill="#fff">Прогноз RUL XJTU-SY</text>
  <rect x="490" y="248" rx="8" width="290" height="42" class="fillgreen"/>
  <text x="510" y="275" class="sm">ImprovedTransformer v3_rnn</text>
  <line x1="500" y1="510" x2="774" y2="510" class="axis"/><line x1="500" y1="330" x2="500" y2="510" class="axis"/>
  <polyline points="505,345 545,367 585,390 625,414 665,442 705,472 768,500" class="green"/>
  <polyline points="505,360 545,385 585,404 625,430 665,456 705,476 768,494" class="red"/>
  <circle cx="706" cy="476" r="6" fill="#d64545"/>
  <text x="504" y="544" class="sm">true RUL / pred RUL / Health Index</text>
  <rect x="490" y="565" rx="8" width="118" height="28" class="fillgold"/><text x="508" y="584" class="sm">Требует контроля</text>

  <rect x="866" y="160" rx="20" width="354" height="450" class="panel"/>
  <rect x="866" y="160" rx="20" width="354" height="58" class="bar"/>
  <text x="892" y="197" font-family="Arial" font-size="18" font-weight="700" fill="#fff">Бортовой дашборд</text>
  <rect x="898" y="252" rx="10" width="86" height="72" class="fillgreen"/><text x="918" y="285" class="txt">OK</text><text x="914" y="307" class="sm">Букса 2</text>
  <rect x="1000" y="252" rx="10" width="86" height="72" class="fillgold"/><text x="1014" y="285" class="txt">34%</text><text x="1018" y="307" class="sm">RUL</text>
  <rect x="1102" y="252" rx="10" width="86" height="72" class="fillred"/><text x="1118" y="285" class="txt">WARN</text><text x="1120" y="307" class="sm">Статус</text>
  <path d="M 952 493 A 92 92 0 1 1 1136 493" fill="none" stroke="#d9e2ec" stroke-width="28"/>
  <path d="M 952 493 A 92 92 0 0 1 1014 406" fill="none" stroke="#f6c343" stroke-width="28"/>
  <line x1="1044" y1="493" x2="1008" y2="425" stroke="#172033" stroke-width="5"/>
  <text x="1018" y="540" class="txt">34%</text>
  <text x="918" y="580" class="sm">метрики + история проверок</text>
</svg>
